# xmcd CD database file
#
# Track frame offsets:
#	150
#	30907
#	71220
#	90725
#	114972
#	138982
#
# Disc length: 2270 seconds
#
# Revision: 1
# Processed by: cddbd v1.5.2PL0 Copyright (c) Steve Scherf et al.
# Submitted via: CDex 1.70beta2
#
DISCID=4708dc06
DTITLE=向井滋春 - Jazz Strings Disc-2
DYEAR=2004
DGENRE=Jazz
TTITLE0=Libel Tango
TTITLE1=Someone to Watch over Me
TTITLE2=Donna Lee
TTITLE3=Primavera
TTITLE4=Straight No Chaser
TTITLE5=06-Nos Dois
EXTD=YEAR: 2004
EXTT0=
EXTT1=
EXTT2=
EXTT3=
EXTT4=
EXTT5=
PLAYORDER=
